<?xml version="1.0" encoding="utf-8"?>
<!-- Generator: Adobe Illustrator 16.0.0, SVG Export Plug-In . SVG Version: 6.00 Build 0)  -->
<!DOCTYPE svg PUBLIC "-//W3C//DTD SVG 1.0//EN" "http://www.w3.org/TR/2001/REC-SVG-20010904/DTD/svg10.dtd">
<svg version="1.0" id="Layer_1" xmlns="http://www.w3.org/2000/svg" xmlns:xlink="http://www.w3.org/1999/xlink" x="0px" y="0px"
	 width="100px" height="100px" viewBox="0 0 100 100" enable-background="new 0 0 100 100" xml:space="preserve">
<rect x="46.667" y="50" width="6.667" height="20"/>
<rect x="33.333" y="50" width="6.667" height="20"/>
<rect x="60" y="50" width="6.667" height="20"/>
<path d="M73.542,36.667l-7.279-20L60,18.945l6.448,17.722h-32.9L40,18.945l-6.263-2.278l-7.282,20H10v6.667h6.667l5.57,33.424
	c0.602,3.616,4.095,6.575,7.764,6.575h40c3.665,0,7.161-2.959,7.764-6.575l5.569-33.424H90v-6.667H73.542z M71.188,75.664
	C71.12,76.067,70.41,76.667,70,76.667H30c-0.41,0-1.12-0.6-1.188-1.006l-5.388-32.327h53.151L71.188,75.664z"/>
</svg>
